<!-- Generated by IcoMoon.io -->
<svg version="1.1" xmlns="http://www.w3.org/2000/svg" width="32" height="32" viewBox="0 0 32 32">
<title>instagram-2</title>
<path fill="#e5e5e5" d="M0 0h32v32h-32z"></path>
<path fill="#fff" d="M-368-3472h2880v6936h-2880z"></path>
<path fill="#f4f4fd" d="M-368-1200h2880v1560h-2880z"></path>
<path fill="#fff" d="M-56-736h528v848c0 4-4 8-8 8h-512c-4 0-8-4-8-8v-848z"></path>
<path fill="#4d5ae5" d="M56 16c-0.317 21.848-18.102 39.438-39.996 39.438-10.907 0-20.794-4.365-28.010-11.444l0.006 0.006c-7.073-7.21-11.438-17.097-11.438-28.004 0-21.894 17.59-39.679 39.408-39.996l0.030-0c22.091 0 40 17.909 40 40v0z"></path>
<path fill="#f4f4fd" d="M32 10v-4l-2-4-4-2h-4c-2.394-0.186-5.185-0.291-8-0.291s-5.606 0.106-8.368 0.314l0.368-0.022-4 2-2 4v4c-0.186 2.394-0.291 5.185-0.291 8s0.106 5.606 0.314 8.368l-0.022-0.368 2 4 4 2h4c2.393 0.173 5.185 0.272 8 0.272s5.607-0.099 8.373-0.292l-0.373 0.021 6-6v-4c0.097-1.792 0.153-3.89 0.153-6s-0.055-4.208-0.165-6.291l0.012 0.291zM30 22l-2 4-2 2-4 2c-5.882-0.315-11.371-1.028-16.722-2.123l0.722 0.123h-2v-6c-0.182-2.394-0.286-5.185-0.286-8s0.104-5.606 0.308-8.369l-0.022 0.369v-2h6c2.394-0.182 5.185-0.286 8-0.286s5.606 0.104 8.369 0.308l-0.369-0.022h2v2l2 4c0.102 1.792 0.161 3.889 0.161 6s-0.058 4.208-0.174 6.289l0.013-0.289z"></path>
<path fill="#f4f4fd" d="M16 8c-4.418 0-8 3.582-8 8s3.582 8 8 8v0c4.418 0 8-3.582 8-8s-3.582-8-8-8v0zM16 22c-3.314 0-6-2.686-6-6s2.686-6 6-6v0c3.314 0 6 2.686 6 6s-2.686 6-6 6v0zM26 8c0 1.105-0.895 2-2 2s-2-0.895-2-2v0c0-1.105 0.895-2 2-2s2 0.895 2 2v0z"></path>
</svg>
