<!-- Generated by IcoMoon.io -->
<svg version="1.1" xmlns="http://www.w3.org/2000/svg" width="32" height="32" viewBox="0 0 32 32">
<title>linkedin-1</title>
<path fill="#e5e5e5" d="M0 0h32v32h-32z"></path>
<path fill="#fff" d="M-752-3472h2880v6936h-2880z"></path>
<path fill="#f4f4fd" d="M-752-1200h2880v1560h-2880z"></path>
<path fill="#fff" d="M-440-736h528v848c0 4-4 8-8 8h-512c-4 0-8-4-8-8v-848z"></path>
<path fill="#4d5ae5" d="M56 16c-0.317 21.848-18.102 39.438-39.996 39.438-10.907 0-20.794-4.365-28.010-11.444l0.006 0.006c-7.073-7.21-11.438-17.097-11.438-28.004 0-21.894 17.59-39.679 39.408-39.996l0.030-0c22.091 0 40 17.909 40 40v0z"></path>
<path fill="#f4f4fd" d="M32 32v-12c0-6-2-10-8-10-4 0-6 2-6 4v-4h-6v22h6v-10c0-4 0-6 4-6s4 4 4 6v10h6zM0 10h8v22h-8v-22zM4 0l-4 4 4 4 4-4-4-4z"></path>
</svg>
