<!-- Generated by IcoMoon.io -->
<svg version="1.1" xmlns="http://www.w3.org/2000/svg" width="32" height="32" viewBox="0 0 32 32">
<title>twitter-1</title>
<path fill="#e5e5e5" d="M0 0h32v32h-32z"></path>
<path fill="#fff" d="M-496-3472h2880v6936h-2880z"></path>
<path fill="#f4f4fd" d="M-496-1200h2880v1560h-2880z"></path>
<path fill="#fff" d="M-184-736h528v848c0 4-4 8-8 8h-512c-4 0-8-4-8-8v-848z"></path>
<path fill="#4d5ae5" d="M56 16c-0.317 21.848-18.102 39.438-39.996 39.438-10.907 0-20.794-4.365-28.010-11.444l0.006 0.006c-7.073-7.21-11.438-17.097-11.438-28.004 0-21.894 17.59-39.679 39.408-39.996l0.030-0c22.091 0 40 17.909 40 40v0z"></path>
<path fill="#f4f4fd" d="M32 6l-4 2 4-4-6 2c-1.089-1.104-2.601-1.787-4.272-1.787-3.314 0-6 2.686-6 6 0 0.638 0.1 1.253 0.284 1.83l-0.012-0.043-14-8c-0.485 0.847-0.771 1.861-0.771 2.943 0 2.115 1.094 3.974 2.748 5.043l0.024 0.014h-2c0 4 2 6 4 6-0.301 0.053-0.647 0.084-1 0.084s-0.699-0.031-1.036-0.089l0.036 0.005c0 4 2 6 6 6-2.137 1.389-4.75 2.215-7.557 2.215-0.863 0-1.708-0.078-2.529-0.228l0.086 0.013 10 2c9.941 0 18-8.059 18-18v0l4-4z"></path>
</svg>
